<svg xmlns="http://www.w3.org/2000/svg" xmlns:xlink="http://www.w3.org/1999/xlink" width="345" height="230"><linearGradient id="a" x1="172.5" x2="172.5" y1="230" y2="0" gradientUnits="userSpaceOnUse"><stop offset="0" stop-color="#662d91"/><stop offset=".209" stop-color="#692d91"/><stop offset=".335" stop-color="#712c93"/><stop offset=".438" stop-color="#7f2b95"/><stop offset=".529" stop-color="#932998"/><stop offset=".55" stop-color="#992999"/></linearGradient><path fill="url(#a)" d="M0 0h345v230H0z"/><g fill="#FFF" opacity=".35"><path d="M248.982 125.921l4.324-.206a4.29 4.29 0 002.931-1.348l4.538-4.805a4.33 4.33 0 00.723-4.893l-3.176-6.285 7.051-4.338a4.315 4.315 0 001.878-2.457l2.854-9.705a4.318 4.318 0 00-2.439-5.184l-4.282-1.809.57-3.314 4.896-2.062a4.305 4.305 0 002.44-2.677l.689-2.182 5.634 6.658a4.288 4.288 0 003.275 1.531c2.39 0 4.334-1.938 4.334-4.318v-7.605l-.176-8.231c-.115-5.478-4.661-9.934-10.132-9.934-.406 0-.817.024-1.224.073l-42.082 5.05.289-.784a4.323 4.323 0 00-.463-3.891 4.325 4.325 0 00-3.42-1.912l-5.353-.206a4.348 4.348 0 00-3.618 1.723l-13.141 17.528-11.59 5.81-9.553-4.922a4.342 4.342 0 00-1.976-.479 4.326 4.326 0 00-3.148 1.363l-8.858 9.449a4.29 4.29 0 00-.902 4.444l1.6 4.284-5.67 5.373-5.406 3.131a4.292 4.292 0 00-2.105 4.375l.452 3.01c.314 2.096 2.149 3.678 4.268 3.677.611 0 1.207-.128 1.77-.382l4.621-2.08 5.762-2.441 5.902 4.131a4.25 4.25 0 001.656.702l9.023 1.72v2.23l-18.672-2.801a4.3 4.3 0 00-2.227.254l-12.173 4.806a4.311 4.311 0 00-2.629 3.078l-2.38 10.712a4.325 4.325 0 001.325 4.145l5.611 5.051a4.333 4.333 0 003.328 1.084l10.834-1.146.312 16.217c.007.396.069.791.185 1.168l1.977 6.521a9.373 9.373 0 009.023 6.695 9.4 9.4 0 008.36-5.07l14.968-28.715a4.33 4.33 0 00-.875-5.143l-1.95-1.828 3.034-1.012a4.288 4.288 0 002.835-3.103 4.284 4.284 0 00-1.148-4.042l-4.454-4.411.296-.374 9.322 6.012 7.509 10.847a4.312 4.312 0 003.545 1.859 4.303 4.303 0 003.84-2.339l3.347-6.578 7.513 5.338c.74.525 1.604.805 2.492.805a4.334 4.334 0 003.322-1.556 4.296 4.296 0 00.938-3.507l-.174-.779zM287.005 161.024l-5.064-9.622a4.304 4.304 0 00-3.82-2.305 4.304 4.304 0 00-3.563 1.885l-1.322-1.652a4.294 4.294 0 00-3.371-1.619c-.78 0-1.548.213-2.219.615l-11.98 7.188a4.339 4.339 0 00-2.067 3.21l-1.021 8.926a4.322 4.322 0 001.066 3.361 4.303 4.303 0 003.757 1.41l10.146-1.293 1.607 3.818a4.307 4.307 0 003.977 2.641c.248 0 .496-.021.74-.064l5.57-.969a4.317 4.317 0 003.146-2.371l4.486-9.27a4.34 4.34 0 00-.068-3.889zM140.903 144.02l-20.486-13.273a6.898 6.898 0 00-9.221 1.577l-4.596-2.572-8.205-11.682h4.186c.998 0 1.971-.349 2.74-.982l15.563-12.796 8.662-4.909a4.317 4.317 0 001.412-6.223l-7.669-10.992a4.31 4.31 0 00-3.648-1.846 4.306 4.306 0 00-3.55 2.027l-3.952 6.402-4.532-5.097 9.007-6.623a4.32 4.32 0 001.337-5.337l-2.221-4.645a4.341 4.341 0 00-2.619-2.262 4.327 4.327 0 00-3.436.389l-3.926 2.288-17.742-7.507-12.743-7.187a4.34 4.34 0 00-4.868.432l-6.749 5.575a4.319 4.319 0 00-1.307 1.852l-4.581 12.599c-.474 1.3-.29 2.76.489 3.904a4.322 4.322 0 003.455 1.884l9.723.23 6.17 15.256-1.007 15.109a4.337 4.337 0 00.673 2.617l8.297 12.941a4.292 4.292 0 002.09 1.702l15.959 6.108c.145.138.306.252.477.344l4.666 2.612-2.506 3.759a4.301 4.301 0 00-.193 4.469l5.252 9.566-.686 23.287a4.34 4.34 0 00.901 2.77l4.236 5.471a4.27 4.27 0 003.391 1.679 4.394 4.394 0 003.128-1.315 4.256 4.256 0 001.207-3.107l-.193-7.733 15.912-15.235a4.312 4.312 0 001.185-2.005l2.343-8.786a4.311 4.311 0 00-1.825-4.735zM131.442 58.662l2.34 1.771v21.432a4.323 4.323 0 004.32 4.318c.834 0 1.649-.244 2.356-.707l14.813-9.686a4.29 4.29 0 001.836-2.611l4.939-20.75a4.31 4.31 0 00-1.33-4.225l-4.567-4.06a4.37 4.37 0 00-4.501-.768L132.43 51.24a4.27 4.27 0 00-2.645 3.424 4.277 4.277 0 001.657 3.998z"/></g></svg>